<!DOCTYPE svg PUBLIC "-//W3C//DTD SVG 1.1//EN" "http://www.w3.org/Graphics/SVG/1.1/DTD/svg11.dtd">
<!-- Uploaded to: SVG Repo, www.svgrepo.com, Transformed by: SVG Repo Mixer Tools -->
<svg fill="#000000" width="256px" height="256px" viewBox="-12 0 32 32" version="1.1" xmlns="http://www.w3.org/2000/svg">
<g id="SVGRepo_bgCarrier" stroke-width="0"/>
<g id="SVGRepo_tracerCarrier" stroke-linecap="round" stroke-linejoin="round"/>
<g id="SVGRepo_iconCarrier"> <title>dollar</title> <path d="M4.88 15.24v-4.64c0.88 0.32 1.52 1.2 1.52 2.2 0 0.48 0.36 0.84 0.84 0.84s0.84-0.36 0.84-0.84c0-1.92-1.36-3.56-3.2-3.96v-0.88c0-0.48-0.36-0.84-0.84-0.84s-0.84 0.36-0.84 0.84v0.88c-1.84 0.4-3.2 2-3.2 3.96s1.36 3.56 3.2 3.96v4.64c-0.88-0.32-1.52-1.2-1.52-2.2 0-0.48-0.36-0.84-0.84-0.84s-0.84 0.36-0.84 0.84c0 1.92 1.36 3.56 3.2 3.96v0.88c0 0.48 0.36 0.84 0.84 0.84s0.84-0.36 0.84-0.84v-0.88c1.84-0.4 3.2-2 3.2-3.96s-1.4-3.56-3.2-3.96zM1.68 12.8c0-1 0.64-1.88 1.52-2.2v4.4c-0.88-0.32-1.52-1.2-1.52-2.2zM4.88 21.4v-4.4c0.88 0.32 1.52 1.2 1.52 2.2s-0.64 1.84-1.52 2.2z"/> </g>
</svg>